<svg xmlns="http://www.w3.org/2000/svg" viewBox="0 0 1200 900"><defs><linearGradient id="sky" x1="0" y1="0" x2="0" y2="1"><stop stop-color="#02060b"/><stop offset=".52" stop-color="#0a1830"/><stop offset="1" stop-color="#071218"/></linearGradient><linearGradient id="sea" x1="0" y1="0" x2="0" y2="1"><stop stop-color="#0a2e46"/><stop offset="1" stop-color="#020509"/></linearGradient><radialGradient id="moon"><stop stop-color="#ffd06b"/><stop offset=".7" stop-color="#ff8b2d"/><stop offset="1" stop-color="#c64b15"/></radialGradient></defs><rect width="1200" height="900" fill="url(#sky)"/><circle cx="760" cy="205" r="82" fill="url(#moon)"/><path d="M0 430c260-35 390 20 610 8 220-13 400 14 590-8v470H0Z" fill="url(#sea)"/><path d="M730 287c-35 140-18 280 58 470" stroke="#ff9a3d" stroke-width="28" opacity=".32" fill="none"/><path d="M704 286c-22 170 12 350 70 492" stroke="#ffd070" stroke-width="10" opacity=".55" fill="none"/><path d="M640 430h390v26H640Z" fill="#111417"/><path d="M670 456h18v230h-18Zm105 0h18v205h-18Zm105 0h18v242h-18Zm105 0h18v192h-18Z" fill="#111417"/><path d="M0 570c210-24 375 23 560-1 228-29 420 26 640-12" fill="none" stroke="#65f3e5" stroke-width="8" opacity=".3"/><path d="M0 655c195-19 345 20 535 5 210-17 430 18 665-5" fill="none" stroke="#d7fffb" stroke-width="6" opacity=".2"/><text x="62" y="790" fill="#72eee2" font-family="Arial,sans-serif" font-size="28" font-weight="700" letter-spacing="8">NIGHT · SALT · STREET · FOREVER</text></svg>
